<svg id="Layer_1" data-name="Layer 1" xmlns="http://www.w3.org/2000/svg" viewBox="0 0 1080 1080"><path d="M230.39,446.32q18.51-23.91,51.06-36t73.89-12.05q33.8,0,59,5.4t35.24,11.86l1.08,91.7h-.36q-10.06-52.5-35.42-80.19t-59.51-27.69q-33.43,0-50.16,16.54t-16.72,40.64q0,24.45,16.36,38.47t47.64,26.25L378,531q45.31,17.26,69.4,45t24.1,69.76q0,34.88-20.86,58.79t-53.76,35.78a202.46,202.46,0,0,1-69.22,11.86,338.18,338.18,0,0,1-44.41-2.88,237.11,237.11,0,0,1-39.55-8.44q-17.81-5.58-28.59-12.41l-4.67-103.56h.36q8.27,39.55,27.33,68t43.15,43.33q24.08,14.93,46.38,14.92,30.93,0,49.09-16.9t18.15-41.71q0-25.89-15.28-42.43t-46.56-28.41l-25.53-9.7q-46-18-70.84-43.16t-24.81-64Q211.87,470.24,230.39,446.32Z"/><path d="M844,666.38a185.51,185.51,0,0,1-69,62.93,192.6,192.6,0,0,1-92,22.83q-62.22,0-103.56-27.15t-61.85-77.13q-20.49-50-20.5-117.58,0-84.86,22.48-143.11T579,297.27a241.72,241.72,0,0,1,46.39-31.46,250.83,250.83,0,0,1,54.47-20q30.39-7.54,70.66-11.51,39.18-3.94,62.39-7.19t34.34-8.63q11.13-5.39,14-15.46H862q-2.52,36.67-14.56,59.15T809,296.37q-26.43,11.7-72.09,16.36l-39.56,4.32q-59,5.76-96.55,19.24t-58.61,33.44q-21,19.95-29.3,45.48a176.19,176.19,0,0,0-8.27,54.66,263.63,263.63,0,0,0,4.13,47.46q4.13,22.67,11.33,37l-10.07.36q6.1-43.5,29-78a165.08,165.08,0,0,1,59.87-54.65q37-20.15,85.58-20.14,53.57,0,95.64,21.21T846.2,483q24.07,38.65,24.09,91.15Q870.29,626.29,844,666.38Zm-86.3-181q-9-39.56-27.33-60.95t-46-21.39Q643,403,621.28,447T599.52,576q0,51.78,9,91.33T636.2,729q18.7,22.11,46.75,22.11,26.61,0,45.3-18.52t28.59-56.63q9.88-38.11,9.89-96.73Q766.73,524.9,757.74,485.33Z"/></svg>
